<?xml version="1.0" standalone="no"?>
<!DOCTYPE svg PUBLIC "-//W3C//DTD SVG 20010904//EN"
 "http://www.w3.org/TR/2001/REC-SVG-20010904/DTD/svg10.dtd">
<svg version="1.0" xmlns="http://www.w3.org/2000/svg"
 width="700.000000pt" height="700.000000pt" viewBox="0 0 700.000000 700.000000"
 preserveAspectRatio="xMidYMid meet">
<metadata>
Created by potrace 1.11, written by Peter Selinger 2001-2013
</metadata>
<g transform="translate(0.000000,700.000000) scale(0.100000,-0.100000)"
fill="#000000" stroke="none">
<path d="M3449 6843 c-24 -32 -51 -67 -60 -78 -15 -17 -198 -242 -232 -285
-72 -91 -133 -167 -142 -176 -5 -6 -20 -24 -32 -40 -12 -16 -57 -72 -99 -124
-277 -343 -429 -707 -471 -1125 -13 -128 -7 -386 11 -485 4 -24 8 -50 21 -145
5 -37 21 -144 30 -205 3 -14 7 -43 10 -65 3 -22 8 -51 10 -65 6 -34 12 -76 20
-134 5 -41 3 -52 -14 -67 -11 -11 -22 -19 -25 -19 -2 0 -106 -70 -231 -155
-125 -85 -231 -155 -235 -155 -5 0 -10 -3 -12 -8 -3 -7 -41 -33 -358 -248
-450 -305 -565 -385 -570 -399 -3 -8 -5 -191 -4 -407 l0 -393 865 0 864 0 0
-260 0 -260 128 0 c120 0 127 -1 127 -20 1 -175 12 -391 24 -469 42 -266 131
-510 271 -741 27 -44 51 -82 54 -85 3 -3 18 -23 34 -45 15 -22 36 -51 46 -65
l19 -24 21 24 c90 107 214 318 275 468 105 261 145 458 152 761 2 102 7 187 9
190 3 2 60 5 128 5 l122 1 2 145 c1 80 3 197 3 260 l0 115 860 -1 c473 -1 860
1 861 5 4 26 3 785 -1 796 -5 15 -44 42 -395 280 -121 82 -251 171 -290 198
-38 26 -113 76 -165 111 -104 70 -342 232 -490 334 -52 36 -100 65 -107 65 -7
0 -11 3 -9 6 2 3 7 29 10 56 4 28 9 59 11 70 3 11 7 38 10 60 7 50 34 232 40
265 2 14 9 61 15 105 6 44 13 91 15 105 20 131 25 370 11 510 -23 242 -117
547 -233 759 -76 140 -201 314 -366 511 -7 8 -77 96 -156 195 -80 99 -156 194
-170 211 -26 31 -62 75 -124 153 -18 22 -35 40 -38 40 -4 1 -26 -25 -50 -56z"/>
</g>
</svg>
